<?xml version="1.0" standalone="no"?>
<!DOCTYPE svg PUBLIC "-//W3C//DTD SVG 20010904//EN"
 "http://www.w3.org/TR/2001/REC-SVG-20010904/DTD/svg10.dtd">
<svg version="1.0" xmlns="http://www.w3.org/2000/svg"
 width="512.000000pt" height="512.000000pt" viewBox="0 0 512.000000 512.000000"
 preserveAspectRatio="xMidYMid meet">
<metadata>
Created by potrace 1.11, written by Peter Selinger 2001-2013
</metadata>
<g transform="translate(0.000000,512.000000) scale(0.100000,-0.100000)"
fill="#000000" stroke="none">
<path d="M2379 5116 c-2 -2 -40 -6 -83 -10 -44 -4 -82 -9 -85 -11 -4 -2 -34
-7 -66 -10 -117 -14 -472 -111 -499 -136 -6 -5 -16 -9 -24 -9 -19 0 -247 -110
-346 -167 -94 -53 -276 -180 -356 -248 -442 -374 -757 -902 -869 -1455 -38
-190 -46 -274 -45 -520 0 -183 3 -241 19 -345 3 -16 7 -43 9 -60 32 -216 120
-491 226 -705 175 -353 395 -627 715 -889 311 -253 771 -457 1170 -516 22 -4
51 -8 65 -11 147 -26 530 -26 710 1 517 79 1027 322 1379 659 83 80 172 172
207 216 16 19 31 37 34 40 15 13 104 135 159 218 167 250 320 620 366 881 3
19 7 37 9 40 3 5 9 42 22 131 20 146 26 455 12 600 -60 599 -333 1163 -764
1582 -143 139 -311 268 -464 360 -87 52 -294 156 -365 185 -133 53 -405 131
-483 139 -18 2 -36 5 -40 7 -4 3 -36 8 -72 12 -36 4 -74 9 -85 12 -23 5 -451
14 -456 9z"/>
</g>
</svg>
